<svg width="27" height="26" viewBox="0 0 27 26" fill="none" xmlns="http://www.w3.org/2000/svg">
<path d="M2.44452 25.5501H6.50429V12.6812L0.703125 6.99609V23.2774C0.703125 24.5374 1.48456 25.5501 2.44452 25.5501Z" fill="#4285F4"/>
<path d="M20.4336 25.5501H24.4934C25.4533 25.5501 26.2348 24.5303 26.2348 23.2774V6.99609L20.4336 12.674V25.5501Z" fill="#34A853"/>
<path d="M20.4336 2.83045V12.6737L26.2348 6.99581V3.96356C26.2348 1.1578 23.7787 -0.448462 22.0578 1.23786L20.4336 2.83045Z" fill="#FBBC04"/>
<path d="M6.50391 12.6815V2.83105L13.469 9.64922L20.4341 2.83105V12.6815L13.469 19.4925L6.50391 12.6815Z" fill="#EA4335"/>
<path d="M0.703125 3.96942V7.00167L6.50429 12.6796V2.8298L4.88008 1.24372C3.15913 -0.442603 0.703125 1.16366 0.703125 3.96942Z" fill="#C5221F"/>
</svg>
