<svg width="26" height="26" viewBox="0 0 26 26" fill="none" xmlns="http://www.w3.org/2000/svg">
<path d="M8.40857 0.125977H18.5133C22.6199 0.125977 25.9609 3.46697 25.9609 7.57361V17.6783C25.9609 21.785 22.6199 25.126 18.5133 25.126H8.40857C4.30193 25.126 0.960937 21.785 0.960937 17.6783V7.57361C0.960982 3.46697 4.30197 0.125977 8.40857 0.125977ZM3.47594 17.6783C3.47594 20.4025 5.68438 22.611 8.40857 22.611H18.5133C21.2375 22.611 23.4459 20.4025 23.4459 17.6783V7.57361C23.4459 4.84937 21.2375 2.64098 18.5133 2.64098H8.40857C5.68438 2.64098 3.47594 4.84937 3.47594 7.57361V17.6783Z" fill="url(#paint0_linear_171_340)"/>
<path d="M13.4599 6.16016C17.0252 6.16016 19.9258 9.06075 19.9258 12.626C19.9258 16.1913 17.0252 19.0919 13.4599 19.0919C9.89459 19.0919 6.994 16.1913 6.994 12.626C6.994 9.0607 9.89459 6.16016 13.4599 6.16016ZM13.4599 16.5769C15.6419 16.5769 17.4108 14.8081 17.4108 12.626C17.4108 10.444 15.6419 8.67516 13.4599 8.67516C11.2779 8.67516 9.509 10.444 9.509 12.626C9.509 14.808 11.2779 16.5769 13.4599 16.5769Z" fill="url(#paint1_linear_171_340)"/>
<path d="M6.98189 7.7579C6.1262 7.7579 5.43253 7.06423 5.43253 6.20854C5.43253 5.35285 6.1262 4.65918 6.98189 4.65918C7.83758 4.65918 8.53125 5.35285 8.53125 6.20854C8.53125 7.06423 7.83758 7.7579 6.98189 7.7579Z" fill="url(#paint2_linear_171_340)"/>
<defs>
<linearGradient id="paint0_linear_171_340" x1="13.4609" y1="25.0532" x2="13.4609" y2="0.320156" gradientUnits="userSpaceOnUse">
<stop stop-color="#E09B3D"/>
<stop offset="0.3" stop-color="#C74C4D"/>
<stop offset="0.6" stop-color="#C21975"/>
<stop offset="1" stop-color="#7024C4"/>
</linearGradient>
<linearGradient id="paint1_linear_171_340" x1="13.4599" y1="25.0533" x2="13.4599" y2="0.320227" gradientUnits="userSpaceOnUse">
<stop stop-color="#E09B3D"/>
<stop offset="0.3" stop-color="#C74C4D"/>
<stop offset="0.6" stop-color="#C21975"/>
<stop offset="1" stop-color="#7024C4"/>
</linearGradient>
<linearGradient id="paint2_linear_171_340" x1="6.98189" y1="25.0531" x2="6.98189" y2="0.320065" gradientUnits="userSpaceOnUse">
<stop stop-color="#E09B3D"/>
<stop offset="0.3" stop-color="#C74C4D"/>
<stop offset="0.6" stop-color="#C21975"/>
<stop offset="1" stop-color="#7024C4"/>
</linearGradient>
</defs>
</svg>
