<svg width="1440" height="830" viewBox="0 0 1440 1014" fill="none"
xmlns="http://www.w3.org/2000/svg">
<path d="M-125.41 0.942196L33.0348 102.047C87.6643 136.906 137.81 178.337 182.348 225.411L206.815 251.272C277.643 326.132 365.362 382.95 462.639 416.974C521.682 437.626 583.412 449.587 645.895 452.483L682.718 454.19C728.594 456.317 774.566 454.921 820.229 450.015L1022.36 428.295C1243.48 404.536 1464.16 476.934 1628.23 627.067L1448.52 1088.56L1440.09 1075.22C1298.14 850.323 1072.45 691.234 812.928 633.131L722.788 612.951C634.135 593.103 548.599 561.266 468.543 518.321L-212.294 153.091L-125.41 0.942196Z" fill="#F9E2C3"/>
</svg>