<svg width="1441" height="818" viewBox="0 0 1441 818" fill="none" xmlns="http://www.w3.org/2000/svg">
<path d="M1543.1 -270.323L1384.65 -169.218C1330.02 -134.359 1279.88 -92.9282 1235.34 -45.8543L1210.87 -19.9932C1140.04 54.8673 1052.32 111.685 955.047 145.709C896.005 166.361 834.274 178.322 771.791 181.218L734.968 182.925C689.092 185.052 643.12 183.656 597.458 178.75L395.326 157.03C174.203 133.271 -46.4695 205.669 -210.542 355.802L-30.8291 817.299L-22.407 803.956C119.544 579.058 345.234 419.969 604.759 361.866L694.898 341.686C783.552 321.838 869.087 290.001 949.144 247.056L1629.98 -118.174L1543.1 -270.323Z" fill="#F9E2C3"/>
</svg>
