<svg width="42" height="42" viewBox="0 0 42 42" fill="none" xmlns="http://www.w3.org/2000/svg">
<path d="M21 3.5C23.7848 3.5 26.4555 4.60625 28.4246 6.57538C30.3938 8.54451 31.5 11.2152 31.5 14V15.75H38.5V19.25H36.4577L35.133 35.1453C35.0966 35.5826 34.8972 35.9902 34.5744 36.2874C34.2515 36.5847 33.8288 36.7498 33.39 36.75H8.61C8.17118 36.7498 7.74847 36.5847 7.42564 36.2874C7.10281 35.9902 6.90342 35.5826 6.867 35.1453L5.5405 19.25H3.5V15.75H10.5V14C10.5 11.2152 11.6062 8.54451 13.5754 6.57538C15.5445 4.60625 18.2152 3.5 21 3.5ZM32.9455 19.25H9.05275L10.22 33.25H31.7783L32.9455 19.25ZM22.75 22.75V29.75H19.25V22.75H22.75ZM15.75 22.75V29.75H12.25V22.75H15.75ZM29.75 22.75V29.75H26.25V22.75H29.75ZM21 7C19.2041 7 17.4769 7.69026 16.1756 8.92802C14.8743 10.1658 14.0985 11.8563 14.0087 13.65L14 14V15.75H28V14C28 12.2041 27.3097 10.4769 26.072 9.17558C24.8342 7.87431 23.1437 7.09855 21.35 7.00875L21 7Z" fill="white"/>
</svg>
