<svg width="24" height="23" viewBox="0 0 24 23" fill="none" xmlns="http://www.w3.org/2000/svg">
<path d="M11.9987 0.333496C13.8552 0.333496 15.6357 1.07099 16.9484 2.38375C18.2612 3.6965 18.9987 5.47698 18.9987 7.3335V8.50016H23.6654V10.8335H22.3039L21.4207 21.4303C21.3964 21.7219 21.2635 21.9936 21.0483 22.1918C20.8331 22.3899 20.5512 22.5 20.2587 22.5002H3.7387C3.44615 22.5 3.16434 22.3899 2.94912 22.1918C2.7339 21.9936 2.60098 21.7219 2.5767 21.4303L1.69236 10.8335H0.332031V8.50016H4.9987V7.3335C4.9987 5.47698 5.7362 3.6965 7.04895 2.38375C8.3617 1.07099 10.1422 0.333496 11.9987 0.333496ZM19.9624 10.8335H4.03386L4.81203 20.1668H19.1842L19.9624 10.8335ZM13.1654 13.1668V17.8335H10.832V13.1668H13.1654ZM8.4987 13.1668V17.8335H6.16536V13.1668H8.4987ZM17.832 13.1668V17.8335H15.4987V13.1668H17.832ZM11.9987 2.66683C10.8014 2.66683 9.64993 3.127 8.78242 3.95217C7.9149 4.77734 7.39773 5.90438 7.33786 7.10016L7.33203 7.3335V8.50016H16.6654V7.3335C16.6654 6.13621 16.2052 4.98473 15.38 4.11722C14.5548 3.2497 13.4278 2.73253 12.232 2.67266L11.9987 2.66683Z" fill="white"/>
</svg>
