<svg width="362" height="446" viewBox="0 0 362 446" fill="none" xmlns="http://www.w3.org/2000/svg">
<path d="M439.544 194.307C440.36 200.645 440.912 207.067 441.188 213.56L437.691 213.709C437.825 216.865 437.892 220.039 437.892 223.228C437.892 226.418 437.825 229.592 437.691 232.748L441.188 232.896C440.912 239.39 440.36 245.812 439.544 252.15L436.072 251.703C435.256 258.036 434.172 264.285 432.83 270.436L436.25 271.182C434.87 277.511 433.222 283.74 431.32 289.854L427.978 288.814C426.085 294.898 423.936 300.867 421.543 306.709L424.782 308.035C422.331 314.019 419.629 319.871 416.688 325.578L413.577 323.975C410.665 329.626 407.516 335.133 404.142 340.483L407.103 342.35C403.66 347.809 399.988 353.106 396.101 358.228L393.313 356.112C389.475 361.168 385.423 366.05 381.171 370.745L383.766 373.095C379.439 377.872 374.909 382.458 370.189 386.839L367.808 384.273C363.162 388.585 358.329 392.696 353.323 396.59L355.472 399.353C350.393 403.304 345.139 407.037 339.722 410.538L337.823 407.598C332.508 411.033 327.036 414.24 321.419 417.206L323.053 420.301C317.373 423.301 311.546 426.059 305.588 428.56L304.233 425.333C298.412 427.777 292.462 429.973 286.398 431.907L287.461 435.241C281.358 437.188 275.139 438.874 268.819 440.287L268.056 436.871C261.912 438.244 255.67 439.354 249.342 440.19L249.801 443.66C243.465 444.497 237.044 445.062 230.551 445.345L230.399 441.848C227.245 441.985 224.072 442.054 220.884 442.054C217.695 442.054 214.523 441.985 211.368 441.848L211.216 445.345C204.723 445.062 198.302 444.497 191.967 443.66L192.425 440.19C186.097 439.354 179.855 438.244 173.712 436.871L172.948 440.287C166.628 438.874 160.41 437.188 154.306 435.241L155.369 431.907C149.305 429.973 143.356 427.777 137.534 425.333L136.179 428.56C130.221 426.059 124.395 423.301 118.714 420.301L120.348 417.206C114.732 414.24 109.259 411.033 103.945 407.598L102.045 410.538C96.6286 407.037 91.374 403.304 86.295 399.353L88.4441 396.59C83.438 392.696 78.6052 388.586 73.9593 384.273L71.5783 386.839C66.8581 382.458 62.328 377.872 58.0018 373.095L60.5961 370.745C56.3442 366.05 52.2925 361.168 48.4546 356.112L45.6667 358.228C41.7789 353.106 38.107 347.809 34.6647 342.35L37.6252 340.483C34.2518 335.134 31.1026 329.626 28.1907 323.975L25.0794 325.578C22.1388 319.871 19.4364 314.019 16.9856 308.036L20.2244 306.709C17.8315 300.867 15.6823 294.898 13.7895 288.814L10.4475 289.854C8.545 283.74 6.89742 277.511 5.51734 271.182L8.93699 270.436C7.59578 264.285 6.51116 258.036 5.69508 251.703L2.22378 252.15C1.40718 245.812 0.855325 239.39 0.579747 232.896L4.0766 232.748C3.94266 229.592 3.875 226.418 3.875 223.228C3.875 220.039 3.94266 216.865 4.0766 213.709L0.579747 213.56C0.855326 207.067 1.40718 200.645 2.22377 194.307L5.69508 194.754C6.51116 188.42 7.59578 182.172 8.93699 176.021L5.51733 175.275C6.89742 168.946 8.54498 162.717 10.4475 156.603L13.7894 157.643C15.6823 151.559 17.8315 145.59 20.2244 139.748L16.9855 138.421C19.4364 132.438 22.1388 126.586 25.0794 120.879L28.1907 122.482C31.1025 116.831 34.2518 111.323 37.6252 105.974L34.6646 104.107C38.1069 98.648 41.7789 93.3507 45.6667 88.2289L48.4545 90.3451C52.2925 85.289 56.3442 80.4066 60.596 75.7116L58.0018 73.3622C62.3279 68.5852 66.858 63.9992 71.5782 59.6182L73.9592 62.1835C78.6051 57.8714 83.438 53.7611 88.4441 49.8666L86.295 47.1041C91.3739 43.1528 96.6286 39.4199 102.045 35.9193L103.945 38.8588C109.259 35.4242 114.732 32.217 120.348 29.2507L118.714 26.1557C124.395 23.1558 130.221 20.3983 136.179 17.8967L137.534 21.1238C143.356 18.6798 149.305 16.4842 155.369 14.5501L154.306 11.2156C160.41 9.26898 166.628 7.58291 172.948 6.1703L173.712 9.58602C179.855 8.21295 186.097 7.10242 192.425 6.26674L191.967 2.79687C198.302 1.96014 204.723 1.3946 211.216 1.11218L211.368 4.60887C214.523 4.47166 217.695 4.40234 220.884 4.40234C224.072 4.40234 227.245 4.47166 230.399 4.60887L230.551 1.11218C237.044 1.3946 243.465 1.96014 249.801 2.79687L249.342 6.26674C255.67 7.10242 261.912 8.21295 268.056 9.58602L268.819 6.17029C275.139 7.5829 281.358 9.26897 287.461 11.2156L286.398 14.5501C292.462 16.4842 298.412 18.6798 304.233 21.1238L305.588 17.8966C311.546 20.3982 317.373 23.1558 323.053 26.1557L321.419 29.2506C327.036 32.2169 332.508 35.4241 337.822 38.8588L339.722 35.9192C345.139 39.4198 350.393 43.1528 355.472 47.104L353.323 49.8665C358.329 53.7611 363.162 57.8713 367.808 62.1834L370.189 59.6181C374.909 63.9991 379.439 68.5852 383.766 73.3621L381.171 75.7116C385.423 80.4065 389.475 85.2889 393.313 90.345L396.101 88.2289C399.988 93.3507 403.66 98.6479 407.103 104.107L404.142 105.974C407.516 111.323 410.665 116.83 413.577 122.482L416.688 120.879C419.629 126.586 422.331 132.438 424.782 138.421L421.543 139.748C423.936 145.59 426.085 151.559 427.978 157.643L431.32 156.603C433.222 162.717 434.87 168.946 436.25 175.275L432.83 176.021C434.172 182.172 435.256 188.42 436.072 194.754L439.544 194.307Z" stroke="#7C0000" stroke-width="7" stroke-dasharray="20 20"/>
</svg>
