<svg width="31" height="30" viewBox="0 0 31 30" fill="none" xmlns="http://www.w3.org/2000/svg">
<path d="M2.9515 29.6716H7.73786V14.4994L0.898438 7.79688V26.9922C0.898438 28.4777 1.81973 29.6716 2.9515 29.6716Z" fill="#4285F4"/>
<path d="M24.1602 29.6716H28.9465C30.0783 29.6716 30.9996 28.4693 30.9996 26.9922V7.79688L24.1602 14.491V29.6716Z" fill="#34A853"/>
<path d="M24.1602 2.88609V14.491L30.9996 7.79694V4.222C30.9996 0.914081 28.104 -0.979666 26.0751 1.00846L24.1602 2.88609Z" fill="#FBBC04"/>
<path d="M7.73828 14.4996V2.88623L15.9499 10.9247L24.1616 2.88623V14.4996L15.9499 22.5296L7.73828 14.4996Z" fill="#EA4335"/>
<path d="M0.898438 4.22932V7.80427L7.73786 14.4984V2.88574L5.82297 1.01578C3.79401 -0.972342 0.898438 0.921404 0.898438 4.22932Z" fill="#C5221F"/>
</svg>
