<svg width="20" height="21" viewBox="0 0 20 21" fill="none" xmlns="http://www.w3.org/2000/svg">
<path d="M10 7.37467C9.20435 7.37467 8.44129 7.70391 7.87868 8.28997C7.31607 8.87602 7 9.67087 7 10.4997C7 11.3285 7.31607 12.1233 7.87868 12.7094C8.44129 13.2954 9.20435 13.6247 10 13.6247C10.7956 13.6247 11.5587 13.2954 12.1213 12.7094C12.6839 12.1233 13 11.3285 13 10.4997C13 9.67087 12.6839 8.87602 12.1213 8.28997C11.5587 7.70391 10.7956 7.37467 10 7.37467ZM10 5.29134C11.3261 5.29134 12.5979 5.84007 13.5355 6.81683C14.4732 7.79358 15 9.11834 15 10.4997C15 11.881 14.4732 13.2058 13.5355 14.1825C12.5979 15.1593 11.3261 15.708 10 15.708C8.67392 15.708 7.40215 15.1593 6.46447 14.1825C5.52678 13.2058 5 11.881 5 10.4997C5 9.11834 5.52678 7.79358 6.46447 6.81683C7.40215 5.84007 8.67392 5.29134 10 5.29134ZM16.5 5.03092C16.5 5.37626 16.3683 5.70745 16.1339 5.95164C15.8995 6.19582 15.5815 6.33301 15.25 6.33301C14.9185 6.33301 14.6005 6.19582 14.3661 5.95164C14.1317 5.70745 14 5.37626 14 5.03092C14 4.68559 14.1317 4.3544 14.3661 4.11021C14.6005 3.86602 14.9185 3.72884 15.25 3.72884C15.5815 3.72884 15.8995 3.86602 16.1339 4.11021C16.3683 4.3544 16.5 4.68559 16.5 5.03092ZM10 2.16634C7.526 2.16634 7.122 2.17363 5.971 2.22676C5.187 2.2653 4.661 2.37467 4.173 2.57259C3.739 2.74759 3.426 2.95697 3.093 3.30488C2.78001 3.61988 2.53935 4.00445 2.389 4.42988C2.199 4.9403 2.094 5.48717 2.058 6.3028C2.006 7.4528 2 7.85488 2 10.4997C2 13.0768 2.007 13.4976 2.058 14.6965C2.095 15.5122 2.2 16.0611 2.389 16.5684C2.559 17.0215 2.759 17.3476 3.091 17.6934C3.428 18.0434 3.741 18.2528 4.171 18.4257C4.665 18.6247 5.191 18.7351 5.971 18.7726C7.075 18.8268 7.461 18.833 10 18.833C12.474 18.833 12.878 18.8257 14.029 18.7726C14.811 18.734 15.338 18.6247 15.826 18.4278C16.259 18.2518 16.574 18.0424 16.906 17.6965C17.243 17.3455 17.444 17.0195 17.61 16.5715C17.8 16.058 17.906 15.509 17.942 14.6965C17.994 13.5465 18 13.1445 18 10.4997C18 7.92259 17.993 7.50176 17.942 6.3028C17.905 5.48822 17.8 4.93822 17.61 4.42988C17.4593 4.00488 17.2191 3.62047 16.907 3.30488C16.6047 2.97868 16.2355 2.72797 15.827 2.57155C15.337 2.37363 14.811 2.26426 14.029 2.22676C12.925 2.17259 12.539 2.16634 10 2.16634ZM10 0.0830078C12.717 0.0830078 13.056 0.0934244 14.122 0.145508C15.187 0.197591 15.912 0.37155 16.55 0.629883C17.21 0.894466 17.766 1.2528 18.322 1.83092C18.8305 2.35165 19.224 2.98154 19.475 3.67676C19.722 4.3403 19.89 5.09655 19.94 6.20592C19.987 7.31634 20 7.66947 20 10.4997C20 13.3299 19.99 13.683 19.94 14.7934C19.89 15.9028 19.722 16.658 19.475 17.3226C19.2247 18.0182 18.8311 18.6482 18.322 19.1684C17.822 19.6979 17.2173 20.1077 16.55 20.3695C15.913 20.6268 15.187 20.8018 14.122 20.8538C13.056 20.9028 12.717 20.9163 10 20.9163C7.283 20.9163 6.944 20.9059 5.878 20.8538C4.813 20.8018 4.088 20.6268 3.45 20.3695C2.78233 20.1085 2.17753 19.6986 1.678 19.1684C1.16941 18.6478 0.775931 18.0179 0.525 17.3226C0.277 16.659 0.11 15.9028 0.0599999 14.7934C0.0129999 13.683 0 13.3299 0 10.4997C0 7.66947 0.00999994 7.31634 0.0599999 6.20592C0.11 5.09551 0.277 4.34134 0.525 3.67676C0.775236 2.98111 1.1688 2.35105 1.678 1.83092C2.17767 1.30096 2.78243 0.891059 3.45 0.629883C4.088 0.37155 4.812 0.197591 5.878 0.145508C6.944 0.0965494 7.283 0.0830078 10 0.0830078Z" fill="#E9D1D1"/>
</svg>
