<svg width="31" height="31" viewBox="0 0 31 31" fill="none" xmlns="http://www.w3.org/2000/svg">
<path d="M9.8356 0.495117H21.9613C26.8892 0.495117 30.8984 4.50431 30.8984 9.43228V21.558C30.8984 26.4859 26.8892 30.4951 21.9613 30.4951H9.8356C4.90763 30.4951 0.898438 26.4859 0.898438 21.558V9.43228C0.898491 4.50431 4.90768 0.495117 9.8356 0.495117ZM3.91644 21.558C3.91644 24.827 6.56656 27.4771 9.8356 27.4771H21.9613C25.2303 27.4771 27.8804 24.827 27.8804 21.558V9.43228C27.8804 6.16319 25.2303 3.51312 21.9613 3.51312H9.8356C6.56656 3.51312 3.91644 6.16319 3.91644 9.43228V21.558Z" fill="url(#paint0_linear_32_138)"/>
<path d="M15.8972 7.73584C20.1755 7.73584 23.6562 11.2165 23.6562 15.4949C23.6562 19.7732 20.1755 23.2539 15.8972 23.2539C11.6188 23.2539 8.13811 19.7732 8.13811 15.4949C8.13811 11.2165 11.6188 7.73584 15.8972 7.73584ZM15.8972 20.236C18.5156 20.236 20.6383 18.1133 20.6383 15.4949C20.6383 12.8765 18.5156 10.7538 15.8972 10.7538C13.2787 10.7538 11.1561 12.8765 11.1561 15.4949C11.1561 18.1133 13.2788 20.236 15.8972 20.236Z" fill="url(#paint1_linear_32_138)"/>
<path d="M8.12514 9.65352C7.09832 9.65352 6.26591 8.82112 6.26591 7.79429C6.26591 6.76747 7.09832 5.93506 8.12514 5.93506C9.15197 5.93506 9.98438 6.76747 9.98438 7.79429C9.98438 8.82112 9.15197 9.65352 8.12514 9.65352Z" fill="url(#paint2_linear_32_138)"/>
<defs>
<linearGradient id="paint0_linear_32_138" x1="15.8984" y1="30.4078" x2="15.8984" y2="0.728132" gradientUnits="userSpaceOnUse">
<stop stop-color="#E09B3D"/>
<stop offset="0.3" stop-color="#C74C4D"/>
<stop offset="0.6" stop-color="#C21975"/>
<stop offset="1" stop-color="#7024C4"/>
</linearGradient>
<linearGradient id="paint1_linear_32_138" x1="15.8972" y1="30.4076" x2="15.8972" y2="0.727925" gradientUnits="userSpaceOnUse">
<stop stop-color="#E09B3D"/>
<stop offset="0.3" stop-color="#C74C4D"/>
<stop offset="0.6" stop-color="#C21975"/>
<stop offset="1" stop-color="#7024C4"/>
</linearGradient>
<linearGradient id="paint2_linear_32_138" x1="8.12514" y1="30.4078" x2="8.12514" y2="0.728121" gradientUnits="userSpaceOnUse">
<stop stop-color="#E09B3D"/>
<stop offset="0.3" stop-color="#C74C4D"/>
<stop offset="0.6" stop-color="#C21975"/>
<stop offset="1" stop-color="#7024C4"/>
</linearGradient>
</defs>
</svg>
