<svg width="1441" height="1088" viewBox="0 0 1441 1088" fill="none" xmlns="http://www.w3.org/2000/svg">
<path d="M-289.362 0.133694L-130.916 101.238C-76.2867 136.097 -26.141 177.528 18.3966 224.602L42.8644 250.463C113.692 325.324 201.411 382.141 298.688 416.166C357.731 436.817 419.461 448.778 481.944 451.675L518.767 453.382C564.643 455.509 610.615 454.113 656.278 449.206L858.41 427.487C1079.53 403.727 1300.21 476.125 1464.28 626.259L1284.56 1087.76L1276.14 1074.41C1134.19 849.515 908.501 690.426 648.977 632.323L558.837 612.142C470.184 592.294 384.648 560.458 304.592 517.512L-376.245 152.282L-289.362 0.133694Z" fill="#F9E2C3"/>
</svg>
