<svg width="1441" height="1048" viewBox="0 0 1441 1048" fill="none" xmlns="http://www.w3.org/2000/svg">
<path d="M1552.25 0.612529L1397.09 103.598C1342.14 140.072 1293.51 185.27 1253.11 237.41L1230.51 266.582C1165.33 350.726 1074.74 411.604 972.21 440.18C914.384 456.297 854.108 461.755 794.328 456.29L736.73 451.024C691.117 446.853 645.939 438.821 601.683 427.014L328.306 354.078C115.868 297.4 -110.522 362.228 -260.761 522.76L8.20596 1140.56C128.166 874.104 378.759 689.809 668.852 654.694L702.561 650.614C810.087 637.598 914.356 605.166 1010.29 554.896L1671.06 208.663L1552.25 0.612529Z" fill="#F9E2C3"/>
</svg>
