<svg width="1440" height="1067" viewBox="0 0 1440 1067" fill="none" xmlns="http://www.w3.org/2000/svg">
<path d="M1704.34 883.282L1492.31 837.302C1419.49 821.51 1345.09 814.187 1270.59 815.479L1229.72 816.187C1111.52 818.236 994.363 793.656 886.947 744.27C821.032 713.964 759.619 674.7 704.447 627.59L674.847 602.314C634.543 567.899 596.856 530.533 562.098 490.525L417.46 324.039C248.976 130.107 8.77954 13.1504 -247.788 0.116802L-464.886 490.589L-366.623 470.335C-120.888 419.684 134.909 463.259 350.015 592.414L538.939 705.848C612.274 749.881 690.957 784.322 773.058 808.328L1655.7 1066.41L1704.34 883.282Z" fill="#F9E2C3"/>
</svg>
