<svg width="36" height="36" viewBox="0 0 36 36" fill="none" xmlns="http://www.w3.org/2000/svg">
<path d="M17.3822 0.02053C7.93029 0.466938 0.471409 8.27493 0.500082 17.661C0.508813 20.5198 1.2046 23.2181 2.43199 25.6023L0.547501 34.6759C0.44556 35.1667 0.89184 35.5965 1.3834 35.481L10.3469 33.3746C12.6498 34.5124 15.2364 35.1696 17.9739 35.2111C27.6347 35.3574 35.69 27.7485 35.9911 18.1694C36.3139 7.90128 27.7702 -0.470197 17.3822 0.02053ZM28.0776 27.3548C25.4526 29.9586 21.9623 31.3926 18.25 31.3926C16.0763 31.3926 13.9952 30.9088 12.0643 29.9548L10.816 29.338L5.32049 30.6295L6.47727 25.0594L5.86229 23.8648C4.85991 21.9176 4.35166 19.812 4.35166 17.6065C4.35166 13.9241 5.79732 10.4622 8.42236 7.85832C11.024 5.27776 14.5711 3.82043 18.2503 3.82043C21.9626 3.82052 25.4526 5.25449 28.0777 7.85823C30.7027 10.4621 32.1484 13.924 32.1485 17.6063C32.1484 21.2558 30.6792 24.7743 28.0776 27.3548Z" fill="#7AD06D"/>
<path d="M26.8624 21.4251L23.4243 20.4459C22.9723 20.3172 22.4855 20.4443 22.1561 20.7772L21.3154 21.6269C20.9608 21.9852 20.4229 22.1003 19.9537 21.912C18.3272 21.2591 14.9059 18.2418 14.0322 16.7325C13.7801 16.2971 13.8218 15.7528 14.1313 15.3556L14.8653 14.4136C15.1529 14.0445 15.2136 13.5489 15.0234 13.1222L13.5769 9.87708C13.2304 9.09982 12.2291 8.87356 11.5749 9.42235C10.6153 10.2274 9.47678 11.4507 9.33838 12.806C9.09435 15.1954 10.1275 18.2076 14.0342 21.8243C18.5475 26.0027 22.1617 26.5547 24.5149 25.9893C25.8496 25.6686 26.9163 24.3831 27.5895 23.3305C28.0484 22.6128 27.686 21.6597 26.8624 21.4251Z" fill="#7AD06D"/>
</svg>
