<svg width="26" height="26" viewBox="0 0 26 26" fill="none" xmlns="http://www.w3.org/2000/svg">
<path d="M12.5334 0.533012C5.87713 0.847385 0.624397 6.34597 0.644589 12.9559C0.650737 14.9691 1.14073 16.8694 2.00509 18.5484L0.677982 24.9382C0.606193 25.2839 0.920475 25.5865 1.26664 25.5052L7.57898 24.0218C9.20072 24.8231 11.0223 25.2859 12.9501 25.3151C19.7534 25.4182 25.4262 20.0598 25.6383 13.3139C25.8656 6.08283 19.8489 0.18743 12.5334 0.533012ZM20.0654 19.7825C18.2168 21.6162 15.7589 22.626 13.1445 22.626C11.6138 22.626 10.1482 22.2853 8.78842 21.6135L7.90935 21.1791L4.03924 22.0886L4.85388 18.166L4.42079 17.3248C3.71489 15.9535 3.35697 14.4707 3.35697 12.9175C3.35697 10.3243 4.37504 7.88632 6.22366 6.05258C8.05576 4.23528 10.5537 3.209 13.1447 3.209C15.759 3.20906 18.2168 4.2189 20.0654 6.05252C21.9141 7.8862 22.9321 10.3242 22.9322 12.9173C22.9321 15.4874 21.8975 17.9652 20.0654 19.7825Z" fill="#7AD06D"/>
<path d="M19.2084 15.6069L16.7871 14.9173C16.4688 14.8267 16.126 14.9162 15.8941 15.1506L15.302 15.749C15.0523 16.0013 14.6735 16.0824 14.343 15.9498C13.1977 15.49 10.7883 13.3651 10.173 12.3022C9.99546 11.9956 10.0248 11.6123 10.2428 11.3326L10.7597 10.6692C10.9622 10.4093 11.005 10.0602 10.871 9.75981L9.85237 7.47448C9.60837 6.92711 8.90319 6.76777 8.4425 7.15425C7.76674 7.72117 6.96494 8.58267 6.86747 9.53709C6.69563 11.2198 7.42316 13.341 10.1744 15.888C13.3527 18.8306 15.898 19.2193 17.5552 18.8211C18.4951 18.5953 19.2463 17.69 19.7204 16.9487C20.0436 16.4433 19.7883 15.7721 19.2084 15.6069Z" fill="#7AD06D"/>
</svg>
