<svg width="20" height="17" viewBox="0 0 20 17" fill="none" xmlns="http://www.w3.org/2000/svg">
<path d="M17.606 3.28678C17.53 2.97637 17.314 2.74199 17.067 2.67012C16.63 2.54199 14.5 2.25033 10 2.25033C5.5 2.25033 3.372 2.54199 2.931 2.67012C2.687 2.74095 2.471 2.97533 2.394 3.28678C2.285 3.72845 2 5.57949 2 8.50033C2 11.4212 2.285 13.2712 2.394 13.7149C2.47 14.0243 2.686 14.2587 2.932 14.3295C3.372 14.4587 5.5 14.7503 10 14.7503C14.5 14.7503 16.629 14.4587 17.069 14.3305C17.313 14.2597 17.529 14.0253 17.606 13.7139C17.715 13.2722 18 11.417 18 8.50033C18 5.58366 17.715 3.72949 17.606 3.28678ZM19.543 2.76908C20 4.62533 20 8.50033 20 8.50033C20 8.50033 20 12.3753 19.543 14.2316C19.289 15.2576 18.546 16.0649 17.605 16.3378C15.896 16.8337 10 16.8337 10 16.8337C10 16.8337 4.107 16.8337 2.395 16.3378C1.45 16.0607 0.708 15.2545 0.457 14.2316C2.98023e-08 12.3753 0 8.50033 0 8.50033C0 8.50033 2.98023e-08 4.62533 0.457 2.76908C0.711 1.74303 1.454 0.935742 2.395 0.662825C4.107 0.166992 10 0.166992 10 0.166992C10 0.166992 15.896 0.166992 17.605 0.662825C18.55 0.939909 19.292 1.74616 19.543 2.76908ZM8 12.1462V4.85449L14 8.50033L8 12.1462Z" fill="#E9D1D1"/>
</svg>
